<svg xmlns="http://www.w3.org/2000/svg" viewBox="0 0 64 64" width="64" height="64">
  <defs>
    <linearGradient id="g1" x1="0" y1="0" x2="0" y2="1">
      <stop offset="0" stop-color="#FFD166"/>
      <stop offset="1" stop-color="#FCA311"/>
    </linearGradient>
  </defs>
  <circle cx="24" cy="24" r="10" fill="url(#g1)"/>
  <g fill="#FDB813" opacity="0.9">
    <rect x="23" y="6" width="2" height="6" rx="1"/>
    <rect x="23" y="36" width="2" height="6" rx="1"/>
    <rect x="6" y="23" width="6" height="2" rx="1"/>
    <rect x="36" y="23" width="6" height="2" rx="1"/>
    <rect x="10.2" y="10.2" width="2" height="6" rx="1" transform="rotate(-45 11.2 13.2)"/>
    <rect x="35.8" y="35.8" width="2" height="6" rx="1" transform="rotate(-45 36.8 38.8)"/>
    <rect x="35.8" y="10.2" width="2" height="6" rx="1" transform="rotate(45 36.8 13.2)"/>
    <rect x="10.2" y="35.8" width="2" height="6" rx="1" transform="rotate(45 11.2 38.8)"/>
  </g>
  <g>
    <path d="M46 30c-5.1 0-9.3 3.7-10.1 8.6C35.2 38.2 34 38 33 38c-5 0-9 4-9 9h26c4.4 0 8-3.6 8-8s-3.6-9-12-9z" fill="#E5EEF6"/>
    <path d="M24 44c0-5 4-9 9-9 1 0 2.2.2 2.9.6C36.7 30.7 41 27 46 27c8.4 0 12 5.6 12 11s-3.6 8-8 8H24z" fill="#D6E4EF" opacity="0.9"/>
  </g>
</svg>

